/* XPM */
static char *_617681397078[] = {
/* columns rows colors chars-per-pixel */
"18 32 175 2 ",
"   c gray12",
".  c #323232",
"X  c #6C0403",
"o  c #515154",
"O  c #6D677A",
"+  c #797675",
"@  c #990706",
"#  c #970303",
"$  c #9D1714",
"%  c #AA0D0A",
"&  c #B50807",
"*  c #A3120F",
"=  c #B1100D",
"-  c #A51D19",
";  c #B51B17",
":  c #B22118",
">  c #B53F11",
",  c #B13E3D",
"<  c #CB0B0A",
"1  c #DC0F0F",
"2  c #C30D12",
"3  c #CA1917",
"4  c #C81B19",
"5  c #D41614",
"6  c #D41718",
"7  c #E31B1B",
"8  c #EF1917",
"9  c #DB211D",
"0  c #E22522",
"q  c #F33934",
"w  c #AB5655",
"e  c #9B7E5B",
"r  c #86694A",
"t  c #936464",
"y  c #8F7C69",
"u  c #907C6A",
"i  c #887470",
"p  c #987F7F",
"a  c #AD6867",
"s  c #F64D45",
"d  c #FD574E",
"f  c #D2726F",
"g  c #FF7A6D",
"h  c #BB8746",
"j  c #AD8D79",
"k  c #C3955F",
"l  c #DB9A6F",
"z  c #C79B73",
"x  c #CBA478",
"c  c #DCAC7C",
"v  c #D7A577",
"b  c #DDB17E",
"n  c #E3B17C",
"m  c #0E448B",
"M  c #064399",
"N  c #2E4982",
"B  c #2C5193",
"V  c #064AA4",
"C  c #064CAC",
"Z  c #0748A7",
"A  c #0B52AE",
"S  c #0955B4",
"D  c #0B5BBA",
"F  c #0751B7",
"G  c #1459B1",
"H  c #3D68A4",
"J  c #2F6AB8",
"K  c #3C72BE",
"L  c #5F779A",
"P  c #616C83",
"I  c #617795",
"U  c #777B89",
"Y  c #4C7AB8",
"T  c #537CB5",
"R  c #095DC3",
"E  c #0C60C3",
"W  c #0C64CC",
"Q  c #1564C2",
"!  c #0D6BD6",
"~  c #0D6EDC",
"^  c #0C67D2",
"/  c #156BD3",
"(  c #106FDB",
")  c #1472DD",
"_  c #367FD0",
"`  c #2A79DA",
"'  c #0E72E3",
"]  c #0F77EC",
"[  c #1072E2",
"{  c #117AEE",
"}  c #1478E6",
"|  c #127CF2",
" . c #467DC7",
".. c #6B8BBB",
"X. c #7986AA",
"o. c #1682F5",
"O. c #1982F5",
"+. c #1384FC",
"@. c #1A86FC",
"#. c #158BFF",
"$. c #1A8CFD",
"%. c #1791FF",
"&. c #1C93FF",
"*. c #1E9AFF",
"=. c #2783E7",
"-. c #2486F6",
";. c #2095FF",
":. c #229CFF",
">. c #23A0FF",
",. c #4C84C6",
"<. c #73A9EE",
"1. c #8F8286",
"2. c #9D9188",
"3. c #838C96",
"4. c #A08487",
"5. c #B19A9A",
"6. c #B9AA99",
"7. c #979AAC",
"8. c #889CBF",
"9. c #9CA0A3",
"0. c #A7A3A4",
"q. c #A5A5AA",
"w. c #BBAAAB",
"e. c #B5B3AC",
"r. c #ADAAB1",
"t. c #B0ADB1",
"y. c #AEB0BA",
"u. c #BAB9BD",
"i. c #B7B3B6",
"p. c #D3AF81",
"a. c #D0B189",
"s. c #E5AF80",
"d. c #E4B683",
"f. c #EABF8C",
"g. c #E3BB88",
"h. c #C2B3A1",
"j. c #C6BDBA",
"k. c #EDC491",
"l. c #F2C291",
"z. c #F0CC9A",
"x. c #F7D19E",
"c. c #E6CBA5",
"v. c #F5D4A3",
"b. c #FBDCAA",
"n. c #F6D9AD",
"m. c #E2D8BE",
"M. c #FCDFB0",
"N. c #FFE4B3",
"B. c #FFE8B8",
"V. c #A0AEC7",
"C. c #BDBDC3",
"Z. c #A9B7D5",
"A. c #BFC2C7",
"S. c #C0C1C5",
"D. c #C4C5CB",
"F. c #CACACE",
"G. c #CED1D4",
"H. c #D0D2D5",
"J. c #D3D3DA",
"K. c #D9DBDD",
"L. c #D6D8DB",
"P. c #C7C9D8",
"I. c #EFE4D4",
"U. c #C0CBE8",
"Y. c #DDDEE0",
"T. c #C1D4F1",
"R. c #D1DBF3",
"E. c #E1E2E4",
"W. c #ECEDEF",
"Q. c #E6E8EA",
"!. c #ECEDF1",
"~. c #F1F2F5",
"^. c #FCFCFD",
"/. c #F4F4F9",
"(. c None",
/* pixels */
"(.(.(.(.(.+.#.#.%.#.(.(.(.(.(.(.(.(.",
"(.(.(.(.~ { _ #.%.%.%.+.(.(.(.(.(.(.",
"(.(.(.(.F ' x 2.o.%.&.%.+.(.(.(.(.(.",
"(.(.(.+.#.o.p.x ,.$.*.*.#.{ (.(.#.(.",
"(.(.| +.+.{ a.7.=.:.>.:.&.+.O.;.u (.",
"(.] | | | +.&.*.*.:.>.:.&.#.{ u 3.(.",
"W ! ' ~ { +.$.$.` $.$.:.;.$.{ I (.(.",
"C Z C R { o.@.U.^.R.$.:.;.$.$.| (.(.",
"(.(.(.] { | @.^.^.E.-.;.;.$.=.B (.(.",
"(.(.{ | ] { @.^.^.. <.$.@.| P._ (.(.",
"(.[ { { ' ) =.T.Y.  R.O.| L Y./ (.(.",
"(.~ ! ! / 6.v.m.!././. .m D.Z.(.(.(.",
"^ W D S S H d.l.N.I.I.+ o D.h.(.(.(.",
"E S V M (.(.1.d.n l.f.r e c (.(.(.(.",
"A (.(.(.(.(.(.N z n c v j (.(.(.(.(.",
"(.(.(.(.(.v.T ,.l.l.s.i (.(.(.(.(.(.",
"(.(.(.(.v.O | c.N.B.b.f.(.(.(.(.(.(.",
"(.(.(.b.l S | v.N.N.b.k.2.(.(.(.(.(.",
"(.(.(.n.(.D ( e.v.v.z.g.k j.L.(.(.(.",
"(.(./.W.V.V V / p.d.b z (.D.L.(.(.(.",
"(.K.G.Q.S.(.Z S G U P (.(.y.S.Q.(.(.",
"(.(.~.^.W.W.(.} (.(.D (.(.(.D.K.K.(.",
"(.(.W.^.~.W.(.) (.(.D (.(.(.K.G.q.Y.",
"(.E.E.H.H.L.Q E (.(.J Y (.(.H.(.q.K.",
"(.G.Y.A.A.7.G X.(.C.8...F.(.(.(.G.A.",
"(.(.i.(.A.i.F.F.(.t.t.u.C.(.(.(.0.(.",
"(.(.(.(.C.D.D.S.(.4.u.F.u.w.(.(.(.(.",
"(.(.(.(.5.w 5.t (.@ * , u.6 3 (.(.(.",
"(.(.(.h & 6 2 a (.# & w.f d s 7 4 (.",
"(.(.(.> < 7 5 = 4.X # 0.4 0 d g q 4 ",
"(.(.(.: 1 8 5 % (.(.(.(.(.(.(.$ - (.",
"(.(.(.(.9 q ; (.(.(.(.(.(.(.(.(.(.(."
};
