/* XPM */
static char *_618117263283[] = {
/* columns rows colors chars-per-pixel */
"32 32 142 2 ",
"   c #1F1714",
".  c #1F1B1A",
"X  c #231916",
"o  c #2A1C15",
"O  c #241E1B",
"+  c #2A1E1A",
"@  c #301D17",
"#  c #391F15",
"$  c #321F1A",
"%  c #25201E",
"&  c #2B211D",
"*  c #312517",
"=  c #33221C",
"-  c #3B231C",
";  c #31281D",
":  c #262322",
">  c #2A2524",
",  c #2C2827",
"<  c #2D2B2A",
"1  c #332622",
"2  c #3B2722",
"3  c #322926",
"4  c #3A2A24",
"5  c #312E2C",
"6  c #392C29",
"7  c #33302F",
"8  c #343232",
"9  c #393635",
"0  c #3C3B3B",
"q  c #4B2317",
"w  c #4B2915",
"e  c #44241B",
"r  c #4C251C",
"t  c #442B1C",
"y  c #4D2B1D",
"u  c #5B2117",
"i  c #542F13",
"p  c #5B2B14",
"a  c #57241A",
"s  c #5B251B",
"d  c #542C1C",
"f  c #5B2B1B",
"g  c #49351B",
"h  c #5B3A16",
"j  c #5C321D",
"k  c #523919",
"l  c #5C3B1D",
"z  c #632C15",
"x  c #6B2E15",
"c  c #622B1B",
"v  c #6B2A1C",
"b  c #7C2916",
"n  c #79231B",
"m  c #742E19",
"M  c #633E13",
"N  c #6D361D",
"B  c #65381F",
"V  c #6C3C1E",
"C  c #773815",
"Z  c #793D17",
"A  c #75321B",
"S  c #7C321A",
"D  c #763B1B",
"F  c #783B1B",
"G  c #442B25",
"H  c #4C2B23",
"J  c #532D22",
"K  c #5C2B20",
"L  c #522F28",
"P  c #433326",
"I  c #4D3124",
"U  c #4A322B",
"Y  c #553520",
"T  c #5A3127",
"R  c #553C24",
"E  c #423E3E",
"W  c #632A21",
"Q  c #633321",
"!  c #673925",
"~  c #61362B",
"^  c #6D352E",
"/  c #6B4117",
"(  c #6E4A13",
")  c #624D1F",
"_  c #724112",
"`  c #75421D",
"'  c #7E461F",
"]  c #6C511B",
"[  c #684220",
"{  c #664D21",
"}  c #714C22",
"|  c #7B4A21",
" . c #6B5425",
".. c #6B4E31",
"X. c #8C2A14",
"o. c #832A1B",
"O. c #8A3615",
"+. c #84341E",
"@. c #8D351C",
"#. c #88391D",
"$. c #953712",
"%. c #973E1C",
"&. c #A63813",
"*. c #AC3816",
"=. c #A43C1B",
"-. c #832F22",
";. c #893220",
":. c #903620",
">. c #AA3022",
",. c #CA321A",
"<. c #8E4B13",
"1. c #84431F",
"2. c #8D471D",
"3. c #854E19",
"4. c #9E4511",
"5. c #91441A",
"6. c #8F5015",
"7. c #925615",
"8. c #9F501A",
"9. c #A34B14",
"0. c #A2441B",
"q. c #A74E1A",
"w. c #B34E19",
"e. c #A95712",
"r. c #B05316",
"t. c #B15E16",
"y. c #966415",
"u. c #9C611D",
"i. c #966A1C",
"p. c #A66217",
"a. c #A86711",
"s. c #B76514",
"d. c #BD6414",
"f. c #B6711C",
"g. c #9A5022",
"h. c #C14312",
"j. c #C6431F",
"k. c #C45B13",
"l. c #C76315",
"z. c #B68217",
"x. c #BEA319",
"c. c #B3862A",
/* pixels */
"q S % 8 < : : J $ 5 O s & O 5 : O > O e p > 5 - z.& 5 : < , 8 < ",
"5 u 9 7 5 7 < < > A s.d.S +.Y - 1 g.v -.: 8 3 D > > .., < > 5 O ",
"9 % = % , < 5 8 #.% 3 + & 9 % % > O 5 1 d 7 < : < , : ) , 7 5 8 ",
"< - - s < < > : T 3 & > > , , , 3 9 9 : d 8 < > < 5 < ( O % 5 5 ",
"a > < < f > 8.c < > y < : , 1 7 > > 3 + O 5 , > 7 G >  .< 5 8 > ",
"> < > > : $.% , < > 2.% 3 , L 2 : 5 % p % > 5 > y > % w 8 < > 3 ",
"> 8 < 9 > b % , 3 3 %.> < 5 5 > < , : <.; { 5 , 8 < s : % - K T ",
"H > < > > r & < : > V : < : > < , O 3.O : > Q H > , o.< , < 7 d ",
"5 3 1 3 H = 0.J t i k : : < 4 1 , $ - : 7 5 7 > J D #.> : : < : ",
": < 1 ! 9 % =.3 > < O x.; R : 9 O X.5 , 5 < > : < % 8.% , , 8 < ",
"0 3 2 1 : < q > < - ` > * Y , 9 9 > $ 5 < < < 8 < , u.< , g [ Y ",
"V c 5 < 5 8 - s W O r d < , ; < 5 : Q , 4 < < < < , Z D ! : < > ",
"& | > 5 5 > T 7 : 1 : : J [ u.> 5 > W W 3 H > > 8 , h + O < > , ",
"% R % % , ' : > 9 9 < < - 5 &.2 G 1 9 X <.+ 5 > % % O.9.+ 8 U 5 ",
"& + y 1.y.; > : : > 9 8 I 7 y : 5 5 8 5 > Z w.f & & 7 + r 5 % 7 ",
"5.7 3 7   i.9 < 9 5 8 8 < - } 8 0 < 0 8 > 7.O , , % > G @.& > 9 ",
"$ 9 > < % q., , . < 8 > x i f.# r G e u * < < 5 > 0 : > b O 1 2 ",
"K : 9 > = j.z M a.e.x m > + , > r $ O :.< , > < 7 > : 5 ^ K 3 + ",
"r.M - + - O   l.: : < 8 d > 9 r > < 8 O C % % 7 < , + %.O < -.;.",
"1.> O + o e & X.O 8 < < < P + j 9 : 9 X 1.> < > O D - % < > 7 8 ",
"A 5 7 5 y # 3 o 4.< 8 < 8 X e 5 : 9 8 < 0., 1 @ e.G > , > 8 : < ",
"T 7 , , O M B - + 5.: < O G 3 H > 5 . A % N # *.  > 5 < < > , < ",
"J > < > l h % > 5 : A - r < > > 5 < , t.& , > z & > 5 < < > 7 5 ",
"3 , 4 ; > r : < H > 5 w.: > 3 : < : $ r - U 3 > ;.& < , , G 1 > ",
"d g . , > % = , 1 > > % a E 1 3 < e O = 1 G > : e f & 9 > < > 8 ",
", % % , 5 > , 7 & = & X X.1.+.G 6.F m & > T > G > a - < . E < > ",
"4 ] . 3 , G % 5 % k.t.v + > : 3 _ o G > 3 Y ; < > > O.% > > < 7 ",
"% < t < 7 = & ' ; , - $ > > 1 > x - 5 < 1 ~ > 4 > % h.e t p.& t ",
", 5 < 4 ; f & > < < 5 -.> > < U X w.5 6 % > 7 < 1 X i < < 9 = - ",
"8 < 8 < : / > < < : 5 >.> < 5 3 + d O < , % < < % t.< < < 7 7 , ",
"8 8 7 8 N 2 < 8 < : 3 :.: 6 5 : 1 + @.> , > , < c.> < : % < 8 ! ",
"t 8 > f > 5 5 . , > > n , 3 9 5 < 5 - W ,.D h y.% > < < : 5 , 5 "
};
